<svg width="28" height="26" viewBox="0 0 28 26" fill="none" xmlns="http://www.w3.org/2000/svg">
<path d="M20.4349 7.82166H17.8132L14.7366 4.72333C14.3249 4.33333 13.6966 4.33333 13.2849 4.72333C12.8949 5.13499 12.8949 5.76333 13.2849 6.17499L14.9316 7.82166H9.01656L10.6632 6.17499C11.0532 5.76333 11.0532 5.13499 10.6632 4.72333C10.2732 4.33333 9.62323 4.33333 9.23323 4.72333L6.1349 7.82166H3.51323C2.38656 7.82166 1.47656 8.73166 1.47656 9.85833V12.8917C1.47656 13.455 1.93156 13.91 2.4949 13.91H2.97156L3.96823 20.3233C4.16323 21.71 5.3549 22.7283 6.76323 22.7067H17.2066C18.5932 22.7283 19.7849 21.71 19.9799 20.3233L20.9766 13.91H21.4532C22.0166 13.91 22.4716 13.455 22.4716 12.8917V9.85833C22.4716 8.73166 21.5616 7.82166 20.4349 7.82166ZM3.51323 11.8733V9.85833H20.4349V11.8733H3.51323ZM18.9182 13.91L17.9866 20.02C17.9216 20.41 17.5966 20.6917 17.2066 20.6917H6.76323C6.37323 20.6917 6.02656 20.41 5.98323 20.02L5.0299 13.91H18.9182ZM8.25823 18.3083V16.2933C8.25823 15.73 8.71323 15.275 9.27656 15.275C9.81823 15.275 10.2732 15.73 10.2732 16.2933V18.3083C10.2732 18.8717 9.81823 19.3267 9.27656 19.3267C8.71323 19.3267 8.25823 18.8717 8.25823 18.3083ZM12.9816 18.3083V16.2933C12.9816 15.73 13.4366 15.275 13.9999 15.275C14.5632 15.275 15.0182 15.73 15.0182 16.2933V18.3083C15.0182 18.8717 14.5632 19.3267 13.9999 19.3267C13.4366 19.3267 12.9816 18.8717 12.9816 18.3083Z" fill="#5B5858"/>
</svg>
