<svg width="21" height="21" viewBox="0 0 21 21" fill="none" xmlns="http://www.w3.org/2000/svg">
    <g clip-path="url(#clip0_5_3583)">
        <path
            d="M3.17012 20.9688C2.2958 20.9688 1.79619 20.5941 1.67129 19.9696C1.29658 18.9703 2.2958 18.3458 2.67051 18.096C3.41992 17.5964 3.79463 17.2217 3.91953 16.847C3.91953 16.5972 3.79463 16.3474 3.54483 15.9727C3.54483 15.9727 3.54483 15.8478 3.41992 15.8478C2.1709 14.224 1.54639 12.2256 1.54639 10.2272C1.54639 5.10616 5.79307 0.984375 10.9141 0.984375C16.0351 0.984375 20.2818 5.10616 20.2818 10.2272C20.2818 15.3482 16.0351 19.4699 10.9141 19.4699C10.2896 19.4699 9.66505 19.345 9.04054 19.2201C5.79307 20.8439 3.41992 20.9688 3.41992 20.9688C3.29502 20.9688 3.29502 20.9688 3.17012 20.9688ZM5.66817 14.5987C6.29268 15.4731 6.54249 16.4723 6.41758 17.3466C6.41758 17.4715 6.29268 17.7213 6.29268 17.8462C6.91719 17.5964 7.54171 17.3466 8.29112 16.9719C8.54093 16.847 8.79073 16.7221 9.04054 16.847H9.16544C9.66505 16.9719 10.2896 17.0968 10.9141 17.0968C14.6611 17.0968 17.7837 14.0991 17.7837 10.3521C17.7837 6.60499 14.6611 3.48242 10.9141 3.48242C7.167 3.48242 4.04444 6.48008 4.04444 10.2272C4.04444 11.726 4.54405 13.2248 5.54327 14.3489C5.54327 14.4738 5.66817 14.4738 5.66817 14.5987Z"
            fill="white" />
    </g>
    <defs>
        <clipPath id="clip0_5_3583">
            <rect width="19.9844" height="19.9844" fill="white"
                transform="translate(0.921875 0.984375)" />
        </clipPath>
    </defs>
</svg>