<svg width="45" height="36" viewBox="0 0 45 36" fill="none" xmlns="http://www.w3.org/2000/svg">
<path d="M13.845 0.0589409L6.44917 -0.000225067C2.89917 -0.000225067 0 2.89894 0 6.50811V13.9039C0 17.4539 2.89917 20.3531 6.44917 20.3531H14.4958C13.9042 24.5539 11.1825 28.1039 7.33667 29.8198C6.09417 30.2931 5.325 31.5948 5.56167 32.8964C5.8575 34.1981 6.98167 35.1448 8.3425 35.1448C8.63833 35.1448 8.99333 35.0856 9.34833 34.9673C16.9217 32.0089 20.3533 24.1398 20.3533 17.5723V6.50811C20.3533 2.89894 17.4542 -0.000225067 13.845 0.0589409ZM37.9258 0.0589409L30.53 -0.000225067C26.9208 -0.000225067 24.0217 2.89894 24.0217 6.50811V13.9039C24.0217 17.4539 26.9208 20.3531 30.53 20.3531H38.5175C37.9258 24.5539 35.2042 28.1039 31.3583 29.8198C30.1158 30.2931 29.3467 31.5948 29.6425 32.8964C29.8792 34.1981 31.0033 35.1448 32.3642 35.1448C32.7192 35.1448 33.015 35.0856 33.37 34.9673C40.9433 32.0089 44.375 24.1398 44.375 17.5723V6.50811C44.375 2.89894 41.4758 -0.000225067 37.9258 0.0589409ZM5.56167 13.9039V6.50811C5.56167 5.97561 5.97583 5.56144 6.44917 5.56144H13.845C14.3775 5.56144 14.7917 5.97561 14.7917 6.50811V14.7914H6.44917C5.97583 14.7914 5.56167 14.4364 5.56167 13.9039ZM29.5833 13.9039V6.50811C29.5833 5.97561 29.9975 5.56144 30.53 5.56144H37.9258C38.3992 5.56144 38.8133 5.97561 38.8133 6.50811V14.7914H30.53C29.9975 14.7914 29.5833 14.4364 29.5833 13.9039Z" fill="white"/>
</svg>
